<svg width="600" height="300" viewBox="0 0 600 300" fill="none" xmlns="http://www.w3.org/2000/svg">
  <!-- Sun -->
  <circle cx="500" cy="70" r="25" fill="black"/>
  <!-- Cloud -->
  <path d="M420 80 Q430 60 450 80 Q470 90 490 80 Q510 100 530 90" stroke="black" stroke-width="3" fill="none"/>
  <!-- Trees -->
  <ellipse cx="80" cy="170" rx="30" ry="25" stroke="black" stroke-width="3" fill="none"/>
  <ellipse cx="180" cy="170" rx="30" ry="25" stroke="black" stroke-width="3" fill="none"/>
  <ellipse cx="520" cy="170" rx="30" ry="25" stroke="black" stroke-width="3" fill="none"/>
  <!-- House -->
  <rect x="120" y="170" width="50" height="35" stroke="black" stroke-width="3" fill="none"/>
  <polygon points="120,170 145,150 170,170" stroke="black" stroke-width="3" fill="none"/>
  <rect x="135" y="190" width="10" height="15" stroke="black" stroke-width="2" fill="none"/>
  <!-- Barn -->
  <rect x="350" y="170" width="60" height="40" stroke="black" stroke-width="3" fill="none"/>
  <polygon points="350,170 380,150 410,170" stroke="black" stroke-width="3" fill="none"/>
  <rect x="375" y="190" width="15" height="20" stroke="black" stroke-width="2" fill="none"/>
  <!-- Silo -->
  <ellipse cx="320" cy="180" rx="15" ry="20" stroke="black" stroke-width="3" fill="none"/>
  <rect x="305" y="180" width="30" height="30" stroke="black" stroke-width="3" fill="none"/>
  <!-- Fence -->
  <path d="M40 200 H560" stroke="black" stroke-width="3"/>
  <path d="M60 200 V215 M100 200 V215 M140 200 V215 M180 200 V215 M220 200 V215 M260 200 V215 M300 200 V215 M340 200 V215 M380 200 V215 M420 200 V215 M460 200 V215 M500 200 V215 M540 200 V215" stroke="black" stroke-width="2"/>
  <!-- Birds -->
  <path d="M200 140 Q205 135 210 140" stroke="black" stroke-width="2" fill="none"/>
  <path d="M215 145 Q220 140 225 145" stroke="black" stroke-width="2" fill="none"/>
  <!-- Ground -->
  <path d="M100 230 Q200 250 300 230 Q400 210 500 230" stroke="black" stroke-width="2" fill="none"/>
  <!-- Message -->
  <text x="50%" y="280" text-anchor="middle" font-size="24" fill="#333" font-family="Arial, sans-serif">
    Ops..! The animals are out of the farm.
  </text>
</svg>